<?xml version="1.0" encoding="utf-8"?>
<svg xmlns="http://www.w3.org/2000/svg"
    xmlns:xlink="http://www.w3.org/1999/xlink"
    width="1520" height="520" viewBox="-10 -10 1520 520">
<defs>
<style type="text/css"><![CDATA[
line {
    stroke: #000000;
    stroke-linecap: square;
    stroke-width: 5;
}
]]></style>
</defs>
<line x1="100.0" y1="0.0" x2="100.0" y2="100.0"/>
<line x1="100.0" y1="100.0" x2="100.0" y2="200.0"/>
<line x1="0.0" y1="300.0" x2="100.0" y2="300.0"/>
<line x1="100.0" y1="300.0" x2="100.0" y2="400.0"/>
<line x1="0.0" y1="500.0" x2="100.0" y2="500.0"/>
<line x1="100.0" y1="200.0" x2="200.0" y2="200.0"/>
<line x1="200.0" y1="100.0" x2="200.0" y2="200.0"/>
<line x1="200.0" y1="200.0" x2="200.0" y2="300.0"/>
<line x1="100.0" y1="400.0" x2="200.0" y2="400.0"/>
<line x1="100.0" y1="500.0" x2="200.0" y2="500.0"/>
<line x1="200.0" y1="100.0" x2="300.0" y2="100.0"/>
<line x1="300.0" y1="200.0" x2="300.0" y2="300.0"/>
<line x1="200.0" y1="400.0" x2="300.0" y2="400.0"/>
<line x1="300.0" y1="300.0" x2="300.0" y2="400.0"/>
<line x1="200.0" y1="500.0" x2="300.0" y2="500.0"/>
<line x1="300.0" y1="100.0" x2="400.0" y2="100.0"/>
<line x1="400.0" y1="100.0" x2="400.0" y2="200.0"/>
<line x1="400.0" y1="200.0" x2="400.0" y2="300.0"/>
<line x1="400.0" y1="300.0" x2="400.0" y2="400.0"/>
<line x1="300.0" y1="500.0" x2="400.0" y2="500.0"/>
<line x1="500.0" y1="100.0" x2="500.0" y2="200.0"/>
<line x1="500.0" y1="200.0" x2="500.0" y2="300.0"/>
<line x1="400.0" y1="400.0" x2="500.0" y2="400.0"/>
<line x1="400.0" y1="500.0" x2="500.0" y2="500.0"/>
<line x1="500.0" y1="100.0" x2="600.0" y2="100.0"/>
<line x1="600.0" y1="100.0" x2="600.0" y2="200.0"/>
<line x1="500.0" y1="300.0" x2="600.0" y2="300.0"/>
<line x1="500.0" y1="400.0" x2="600.0" y2="400.0"/>
<line x1="500.0" y1="500.0" x2="600.0" y2="500.0"/>
<line x1="700.0" y1="0.0" x2="700.0" y2="100.0"/>
<line x1="700.0" y1="100.0" x2="700.0" y2="200.0"/>
<line x1="600.0" y1="300.0" x2="700.0" y2="300.0"/>
<line x1="600.0" y1="400.0" x2="700.0" y2="400.0"/>
<line x1="600.0" y1="500.0" x2="700.0" y2="500.0"/>
<line x1="800.0" y1="0.0" x2="800.0" y2="100.0"/>
<line x1="700.0" y1="200.0" x2="800.0" y2="200.0"/>
<line x1="700.0" y1="300.0" x2="800.0" y2="300.0"/>
<line x1="800.0" y1="300.0" x2="800.0" y2="400.0"/>
<line x1="700.0" y1="500.0" x2="800.0" y2="500.0"/>
<line x1="800.0" y1="400.0" x2="800.0" y2="500.0"/>
<line x1="800.0" y1="200.0" x2="900.0" y2="200.0"/>
<line x1="900.0" y1="100.0" x2="900.0" y2="200.0"/>
<line x1="800.0" y1="300.0" x2="900.0" y2="300.0"/>
<line x1="800.0" y1="500.0" x2="900.0" y2="500.0"/>
<line x1="900.0" y1="200.0" x2="1000.0" y2="200.0"/>
<line x1="900.0" y1="300.0" x2="1000.0" y2="300.0"/>
<line x1="900.0" y1="400.0" x2="1000.0" y2="400.0"/>
<line x1="900.0" y1="500.0" x2="1000.0" y2="500.0"/>
<line x1="1000.0" y1="100.0" x2="1100.0" y2="100.0"/>
<line x1="1100.0" y1="100.0" x2="1100.0" y2="200.0"/>
<line x1="1000.0" y1="300.0" x2="1100.0" y2="300.0"/>
<line x1="1100.0" y1="200.0" x2="1100.0" y2="300.0"/>
<line x1="1000.0" y1="400.0" x2="1100.0" y2="400.0"/>
<line x1="1000.0" y1="500.0" x2="1100.0" y2="500.0"/>
<line x1="1100.0" y1="100.0" x2="1200.0" y2="100.0"/>
<line x1="1200.0" y1="200.0" x2="1200.0" y2="300.0"/>
<line x1="1100.0" y1="400.0" x2="1200.0" y2="400.0"/>
<line x1="1200.0" y1="300.0" x2="1200.0" y2="400.0"/>
<line x1="1100.0" y1="500.0" x2="1200.0" y2="500.0"/>
<line x1="1300.0" y1="0.0" x2="1300.0" y2="100.0"/>
<line x1="1200.0" y1="200.0" x2="1300.0" y2="200.0"/>
<line x1="1300.0" y1="100.0" x2="1300.0" y2="200.0"/>
<line x1="1300.0" y1="300.0" x2="1300.0" y2="400.0"/>
<line x1="1200.0" y1="500.0" x2="1300.0" y2="500.0"/>
<line x1="1300.0" y1="400.0" x2="1300.0" y2="500.0"/>
<line x1="1300.0" y1="200.0" x2="1400.0" y2="200.0"/>
<line x1="1400.0" y1="200.0" x2="1400.0" y2="300.0"/>
<line x1="1400.0" y1="300.0" x2="1400.0" y2="400.0"/>
<line x1="1300.0" y1="500.0" x2="1400.0" y2="500.0"/>
<line x1="1400.0" y1="100.0" x2="1500.0" y2="100.0"/>
<line x1="1500.0" y1="0.0" x2="1500.0" y2="100.0"/>
<line x1="1500.0" y1="100.0" x2="1500.0" y2="200.0"/>
<line x1="1500.0" y1="200.0" x2="1500.0" y2="300.0"/>
<line x1="1500.0" y1="300.0" x2="1500.0" y2="400.0"/>
<line x1="1400.0" y1="500.0" x2="1500.0" y2="500.0"/>
<line x1="1500.0" y1="400.0" x2="1500.0" y2="500.0"/>
<line x1="0" y1="0" x2="1500" y2="0"/>
<line x1="0" y1="0" x2="0" y2="500"/>
</svg>
