<?xml version="1.0" encoding="utf-8"?>
<svg xmlns="http://www.w3.org/2000/svg"
    xmlns:xlink="http://www.w3.org/1999/xlink"
    width="1207" height="520" viewBox="-10 -10 1207 520">
<defs>
<style type="text/css"><![CDATA[
line {
    stroke: #000000;
    stroke-linecap: square;
    stroke-width: 5;
}
]]></style>
</defs>
<line x1="62.473684210526315" y1="0.0" x2="62.473684210526315" y2="62.5"/>
<line x1="0.0" y1="187.5" x2="62.473684210526315" y2="187.5"/>
<line x1="62.473684210526315" y1="125.0" x2="62.473684210526315" y2="187.5"/>
<line x1="62.473684210526315" y1="312.5" x2="62.473684210526315" y2="375.0"/>
<line x1="62.473684210526315" y1="375.0" x2="62.473684210526315" y2="437.5"/>
<line x1="0.0" y1="500.0" x2="62.473684210526315" y2="500.0"/>
<line x1="62.473684210526315" y1="437.5" x2="62.473684210526315" y2="500.0"/>
<line x1="62.473684210526315" y1="125.0" x2="124.94736842105263" y2="125.0"/>
<line x1="124.94736842105263" y1="62.5" x2="124.94736842105263" y2="125.0"/>
<line x1="62.473684210526315" y1="250.0" x2="124.94736842105263" y2="250.0"/>
<line x1="124.94736842105263" y1="187.5" x2="124.94736842105263" y2="250.0"/>
<line x1="124.94736842105263" y1="250.0" x2="124.94736842105263" y2="312.5"/>
<line x1="124.94736842105263" y1="312.5" x2="124.94736842105263" y2="375.0"/>
<line x1="124.94736842105263" y1="375.0" x2="124.94736842105263" y2="437.5"/>
<line x1="62.473684210526315" y1="500.0" x2="124.94736842105263" y2="500.0"/>
<line x1="187.42105263157896" y1="0.0" x2="187.42105263157896" y2="62.5"/>
<line x1="187.42105263157896" y1="62.5" x2="187.42105263157896" y2="125.0"/>
<line x1="187.42105263157896" y1="125.0" x2="187.42105263157896" y2="187.5"/>
<line x1="124.94736842105263" y1="250.0" x2="187.42105263157896" y2="250.0"/>
<line x1="187.42105263157896" y1="187.5" x2="187.42105263157896" y2="250.0"/>
<line x1="187.42105263157896" y1="312.5" x2="187.42105263157896" y2="375.0"/>
<line x1="124.94736842105263" y1="437.5" x2="187.42105263157896" y2="437.5"/>
<line x1="124.94736842105263" y1="500.0" x2="187.42105263157896" y2="500.0"/>
<line x1="249.89473684210526" y1="62.5" x2="249.89473684210526" y2="125.0"/>
<line x1="249.89473684210526" y1="125.0" x2="249.89473684210526" y2="187.5"/>
<line x1="249.89473684210526" y1="187.5" x2="249.89473684210526" y2="250.0"/>
<line x1="187.42105263157896" y1="312.5" x2="249.89473684210526" y2="312.5"/>
<line x1="249.89473684210526" y1="250.0" x2="249.89473684210526" y2="312.5"/>
<line x1="249.89473684210526" y1="312.5" x2="249.89473684210526" y2="375.0"/>
<line x1="249.89473684210526" y1="375.0" x2="249.89473684210526" y2="437.5"/>
<line x1="187.42105263157896" y1="500.0" x2="249.89473684210526" y2="500.0"/>
<line x1="312.36842105263156" y1="0.0" x2="312.36842105263156" y2="62.5"/>
<line x1="249.89473684210526" y1="125.0" x2="312.36842105263156" y2="125.0"/>
<line x1="312.36842105263156" y1="187.5" x2="312.36842105263156" y2="250.0"/>
<line x1="249.89473684210526" y1="312.5" x2="312.36842105263156" y2="312.5"/>
<line x1="249.89473684210526" y1="437.5" x2="312.36842105263156" y2="437.5"/>
<line x1="249.89473684210526" y1="500.0" x2="312.36842105263156" y2="500.0"/>
<line x1="312.36842105263156" y1="125.0" x2="374.8421052631579" y2="125.0"/>
<line x1="374.8421052631579" y1="62.5" x2="374.8421052631579" y2="125.0"/>
<line x1="312.36842105263156" y1="187.5" x2="374.8421052631579" y2="187.5"/>
<line x1="312.36842105263156" y1="250.0" x2="374.8421052631579" y2="250.0"/>
<line x1="374.8421052631579" y1="250.0" x2="374.8421052631579" y2="312.5"/>
<line x1="312.36842105263156" y1="375.0" x2="374.8421052631579" y2="375.0"/>
<line x1="374.8421052631579" y1="312.5" x2="374.8421052631579" y2="375.0"/>
<line x1="312.36842105263156" y1="437.5" x2="374.8421052631579" y2="437.5"/>
<line x1="312.36842105263156" y1="500.0" x2="374.8421052631579" y2="500.0"/>
<line x1="437.3157894736842" y1="62.5" x2="437.3157894736842" y2="125.0"/>
<line x1="374.8421052631579" y1="187.5" x2="437.3157894736842" y2="187.5"/>
<line x1="437.3157894736842" y1="125.0" x2="437.3157894736842" y2="187.5"/>
<line x1="374.8421052631579" y1="312.5" x2="437.3157894736842" y2="312.5"/>
<line x1="374.8421052631579" y1="437.5" x2="437.3157894736842" y2="437.5"/>
<line x1="437.3157894736842" y1="375.0" x2="437.3157894736842" y2="437.5"/>
<line x1="374.8421052631579" y1="500.0" x2="437.3157894736842" y2="500.0"/>
<line x1="437.3157894736842" y1="62.5" x2="499.7894736842105" y2="62.5"/>
<line x1="499.7894736842105" y1="62.5" x2="499.7894736842105" y2="125.0"/>
<line x1="499.7894736842105" y1="125.0" x2="499.7894736842105" y2="187.5"/>
<line x1="437.3157894736842" y1="250.0" x2="499.7894736842105" y2="250.0"/>
<line x1="499.7894736842105" y1="187.5" x2="499.7894736842105" y2="250.0"/>
<line x1="437.3157894736842" y1="312.5" x2="499.7894736842105" y2="312.5"/>
<line x1="499.7894736842105" y1="312.5" x2="499.7894736842105" y2="375.0"/>
<line x1="437.3157894736842" y1="437.5" x2="499.7894736842105" y2="437.5"/>
<line x1="437.3157894736842" y1="500.0" x2="499.7894736842105" y2="500.0"/>
<line x1="499.7894736842105" y1="437.5" x2="499.7894736842105" y2="500.0"/>
<line x1="499.7894736842105" y1="62.5" x2="562.2631578947369" y2="62.5"/>
<line x1="562.2631578947369" y1="125.0" x2="562.2631578947369" y2="187.5"/>
<line x1="562.2631578947369" y1="187.5" x2="562.2631578947369" y2="250.0"/>
<line x1="562.2631578947369" y1="250.0" x2="562.2631578947369" y2="312.5"/>
<line x1="499.7894736842105" y1="375.0" x2="562.2631578947369" y2="375.0"/>
<line x1="562.2631578947369" y1="375.0" x2="562.2631578947369" y2="437.5"/>
<line x1="499.7894736842105" y1="500.0" x2="562.2631578947369" y2="500.0"/>
<line x1="624.7368421052631" y1="0.0" x2="624.7368421052631" y2="62.5"/>
<line x1="562.2631578947369" y1="125.0" x2="624.7368421052631" y2="125.0"/>
<line x1="624.7368421052631" y1="62.5" x2="624.7368421052631" y2="125.0"/>
<line x1="562.2631578947369" y1="250.0" x2="624.7368421052631" y2="250.0"/>
<line x1="624.7368421052631" y1="312.5" x2="624.7368421052631" y2="375.0"/>
<line x1="562.2631578947369" y1="437.5" x2="624.7368421052631" y2="437.5"/>
<line x1="624.7368421052631" y1="375.0" x2="624.7368421052631" y2="437.5"/>
<line x1="562.2631578947369" y1="500.0" x2="624.7368421052631" y2="500.0"/>
<line x1="687.2105263157895" y1="62.5" x2="687.2105263157895" y2="125.0"/>
<line x1="624.7368421052631" y1="187.5" x2="687.2105263157895" y2="187.5"/>
<line x1="687.2105263157895" y1="125.0" x2="687.2105263157895" y2="187.5"/>
<line x1="624.7368421052631" y1="250.0" x2="687.2105263157895" y2="250.0"/>
<line x1="624.7368421052631" y1="312.5" x2="687.2105263157895" y2="312.5"/>
<line x1="687.2105263157895" y1="375.0" x2="687.2105263157895" y2="437.5"/>
<line x1="624.7368421052631" y1="500.0" x2="687.2105263157895" y2="500.0"/>
<line x1="749.6842105263158" y1="0.0" x2="749.6842105263158" y2="62.5"/>
<line x1="687.2105263157895" y1="125.0" x2="749.6842105263158" y2="125.0"/>
<line x1="749.6842105263158" y1="62.5" x2="749.6842105263158" y2="125.0"/>
<line x1="687.2105263157895" y1="250.0" x2="749.6842105263158" y2="250.0"/>
<line x1="687.2105263157895" y1="312.5" x2="749.6842105263158" y2="312.5"/>
<line x1="749.6842105263158" y1="312.5" x2="749.6842105263158" y2="375.0"/>
<line x1="687.2105263157895" y1="437.5" x2="749.6842105263158" y2="437.5"/>
<line x1="687.2105263157895" y1="500.0" x2="749.6842105263158" y2="500.0"/>
<line x1="749.6842105263158" y1="437.5" x2="749.6842105263158" y2="500.0"/>
<line x1="749.6842105263158" y1="125.0" x2="812.1578947368421" y2="125.0"/>
<line x1="812.1578947368421" y1="62.5" x2="812.1578947368421" y2="125.0"/>
<line x1="749.6842105263158" y1="187.5" x2="812.1578947368421" y2="187.5"/>
<line x1="749.6842105263158" y1="250.0" x2="812.1578947368421" y2="250.0"/>
<line x1="749.6842105263158" y1="312.5" x2="812.1578947368421" y2="312.5"/>
<line x1="749.6842105263158" y1="375.0" x2="812.1578947368421" y2="375.0"/>
<line x1="812.1578947368421" y1="375.0" x2="812.1578947368421" y2="437.5"/>
<line x1="749.6842105263158" y1="500.0" x2="812.1578947368421" y2="500.0"/>
<line x1="812.1578947368421" y1="62.5" x2="874.6315789473684" y2="62.5"/>
<line x1="874.6315789473684" y1="62.5" x2="874.6315789473684" y2="125.0"/>
<line x1="812.1578947368421" y1="187.5" x2="874.6315789473684" y2="187.5"/>
<line x1="812.1578947368421" y1="250.0" x2="874.6315789473684" y2="250.0"/>
<line x1="874.6315789473684" y1="187.5" x2="874.6315789473684" y2="250.0"/>
<line x1="874.6315789473684" y1="250.0" x2="874.6315789473684" y2="312.5"/>
<line x1="874.6315789473684" y1="312.5" x2="874.6315789473684" y2="375.0"/>
<line x1="812.1578947368421" y1="437.5" x2="874.6315789473684" y2="437.5"/>
<line x1="812.1578947368421" y1="500.0" x2="874.6315789473684" y2="500.0"/>
<line x1="937.1052631578947" y1="0.0" x2="937.1052631578947" y2="62.5"/>
<line x1="874.6315789473684" y1="125.0" x2="937.1052631578947" y2="125.0"/>
<line x1="937.1052631578947" y1="187.5" x2="937.1052631578947" y2="250.0"/>
<line x1="937.1052631578947" y1="250.0" x2="937.1052631578947" y2="312.5"/>
<line x1="937.1052631578947" y1="312.5" x2="937.1052631578947" y2="375.0"/>
<line x1="874.6315789473684" y1="437.5" x2="937.1052631578947" y2="437.5"/>
<line x1="937.1052631578947" y1="375.0" x2="937.1052631578947" y2="437.5"/>
<line x1="874.6315789473684" y1="500.0" x2="937.1052631578947" y2="500.0"/>
<line x1="937.1052631578947" y1="62.5" x2="999.578947368421" y2="62.5"/>
<line x1="937.1052631578947" y1="125.0" x2="999.578947368421" y2="125.0"/>
<line x1="999.578947368421" y1="125.0" x2="999.578947368421" y2="187.5"/>
<line x1="937.1052631578947" y1="250.0" x2="999.578947368421" y2="250.0"/>
<line x1="999.578947368421" y1="187.5" x2="999.578947368421" y2="250.0"/>
<line x1="999.578947368421" y1="312.5" x2="999.578947368421" y2="375.0"/>
<line x1="937.1052631578947" y1="437.5" x2="999.578947368421" y2="437.5"/>
<line x1="937.1052631578947" y1="500.0" x2="999.578947368421" y2="500.0"/>
<line x1="999.578947368421" y1="125.0" x2="1062.0526315789473" y2="125.0"/>
<line x1="1062.0526315789473" y1="62.5" x2="1062.0526315789473" y2="125.0"/>
<line x1="1062.0526315789473" y1="187.5" x2="1062.0526315789473" y2="250.0"/>
<line x1="999.578947368421" y1="312.5" x2="1062.0526315789473" y2="312.5"/>
<line x1="1062.0526315789473" y1="250.0" x2="1062.0526315789473" y2="312.5"/>
<line x1="1062.0526315789473" y1="312.5" x2="1062.0526315789473" y2="375.0"/>
<line x1="1062.0526315789473" y1="375.0" x2="1062.0526315789473" y2="437.5"/>
<line x1="999.578947368421" y1="500.0" x2="1062.0526315789473" y2="500.0"/>
<line x1="1062.0526315789473" y1="62.5" x2="1124.5263157894738" y2="62.5"/>
<line x1="1124.5263157894738" y1="62.5" x2="1124.5263157894738" y2="125.0"/>
<line x1="1124.5263157894738" y1="125.0" x2="1124.5263157894738" y2="187.5"/>
<line x1="1124.5263157894738" y1="187.5" x2="1124.5263157894738" y2="250.0"/>
<line x1="1124.5263157894738" y1="250.0" x2="1124.5263157894738" y2="312.5"/>
<line x1="1062.0526315789473" y1="375.0" x2="1124.5263157894738" y2="375.0"/>
<line x1="1062.0526315789473" y1="437.5" x2="1124.5263157894738" y2="437.5"/>
<line x1="1062.0526315789473" y1="500.0" x2="1124.5263157894738" y2="500.0"/>
<line x1="1187.0" y1="0.0" x2="1187.0" y2="62.5"/>
<line x1="1187.0" y1="62.5" x2="1187.0" y2="125.0"/>
<line x1="1187.0" y1="125.0" x2="1187.0" y2="187.5"/>
<line x1="1187.0" y1="187.5" x2="1187.0" y2="250.0"/>
<line x1="1187.0" y1="250.0" x2="1187.0" y2="312.5"/>
<line x1="1124.5263157894738" y1="375.0" x2="1187.0" y2="375.0"/>
<line x1="1187.0" y1="312.5" x2="1187.0" y2="375.0"/>
<line x1="1187.0" y1="375.0" x2="1187.0" y2="437.5"/>
<line x1="1124.5263157894738" y1="500.0" x2="1187.0" y2="500.0"/>
<line x1="1187.0" y1="437.5" x2="1187.0" y2="500.0"/>
<line x1="0" y1="0" x2="1187" y2="0"/>
<line x1="0" y1="0" x2="0" y2="500"/>
</svg>
