<?xml version="1.0" encoding="utf-8"?>
<svg xmlns="http://www.w3.org/2000/svg"
    xmlns:xlink="http://www.w3.org/1999/xlink"
    width="964" height="520" viewBox="-10 -10 964 520">
<defs>
<style type="text/css"><![CDATA[
line {
    stroke: #000000;
    stroke-linecap: square;
    stroke-width: 5;
}
]]></style>
</defs>
<line x1="55.529411764705884" y1="55.55555555555556" x2="55.529411764705884" y2="111.11111111111111"/>
<line x1="55.529411764705884" y1="111.11111111111111" x2="55.529411764705884" y2="166.66666666666669"/>
<line x1="55.529411764705884" y1="166.66666666666669" x2="55.529411764705884" y2="222.22222222222223"/>
<line x1="0.0" y1="333.33333333333337" x2="55.529411764705884" y2="333.33333333333337"/>
<line x1="55.529411764705884" y1="333.33333333333337" x2="55.529411764705884" y2="388.8888888888889"/>
<line x1="55.529411764705884" y1="388.8888888888889" x2="55.529411764705884" y2="444.44444444444446"/>
<line x1="0.0" y1="500.0" x2="55.529411764705884" y2="500.0"/>
<line x1="55.529411764705884" y1="55.55555555555556" x2="111.05882352941177" y2="55.55555555555556"/>
<line x1="111.05882352941177" y1="111.11111111111111" x2="111.05882352941177" y2="166.66666666666669"/>
<line x1="111.05882352941177" y1="166.66666666666669" x2="111.05882352941177" y2="222.22222222222223"/>
<line x1="55.529411764705884" y1="277.77777777777777" x2="111.05882352941177" y2="277.77777777777777"/>
<line x1="111.05882352941177" y1="222.22222222222223" x2="111.05882352941177" y2="277.77777777777777"/>
<line x1="111.05882352941177" y1="277.77777777777777" x2="111.05882352941177" y2="333.33333333333337"/>
<line x1="111.05882352941177" y1="333.33333333333337" x2="111.05882352941177" y2="388.8888888888889"/>
<line x1="55.529411764705884" y1="444.44444444444446" x2="111.05882352941177" y2="444.44444444444446"/>
<line x1="55.529411764705884" y1="500.0" x2="111.05882352941177" y2="500.0"/>
<line x1="111.05882352941177" y1="55.55555555555556" x2="166.58823529411765" y2="55.55555555555556"/>
<line x1="166.58823529411765" y1="55.55555555555556" x2="166.58823529411765" y2="111.11111111111111"/>
<line x1="166.58823529411765" y1="111.11111111111111" x2="166.58823529411765" y2="166.66666666666669"/>
<line x1="166.58823529411765" y1="166.66666666666669" x2="166.58823529411765" y2="222.22222222222223"/>
<line x1="111.05882352941177" y1="277.77777777777777" x2="166.58823529411765" y2="277.77777777777777"/>
<line x1="111.05882352941177" y1="333.33333333333337" x2="166.58823529411765" y2="333.33333333333337"/>
<line x1="166.58823529411765" y1="388.8888888888889" x2="166.58823529411765" y2="444.44444444444446"/>
<line x1="111.05882352941177" y1="500.0" x2="166.58823529411765" y2="500.0"/>
<line x1="166.58823529411765" y1="444.44444444444446" x2="166.58823529411765" y2="500.0"/>
<line x1="166.58823529411765" y1="55.55555555555556" x2="222.11764705882354" y2="55.55555555555556"/>
<line x1="222.11764705882354" y1="55.55555555555556" x2="222.11764705882354" y2="111.11111111111111"/>
<line x1="166.58823529411765" y1="166.66666666666669" x2="222.11764705882354" y2="166.66666666666669"/>
<line x1="166.58823529411765" y1="277.77777777777777" x2="222.11764705882354" y2="277.77777777777777"/>
<line x1="222.11764705882354" y1="222.22222222222223" x2="222.11764705882354" y2="277.77777777777777"/>
<line x1="222.11764705882354" y1="277.77777777777777" x2="222.11764705882354" y2="333.33333333333337"/>
<line x1="166.58823529411765" y1="388.8888888888889" x2="222.11764705882354" y2="388.8888888888889"/>
<line x1="222.11764705882354" y1="333.33333333333337" x2="222.11764705882354" y2="388.8888888888889"/>
<line x1="166.58823529411765" y1="500.0" x2="222.11764705882354" y2="500.0"/>
<line x1="277.6470588235294" y1="0.0" x2="277.6470588235294" y2="55.55555555555556"/>
<line x1="222.11764705882354" y1="111.11111111111111" x2="277.6470588235294" y2="111.11111111111111"/>
<line x1="222.11764705882354" y1="166.66666666666669" x2="277.6470588235294" y2="166.66666666666669"/>
<line x1="277.6470588235294" y1="166.66666666666669" x2="277.6470588235294" y2="222.22222222222223"/>
<line x1="277.6470588235294" y1="222.22222222222223" x2="277.6470588235294" y2="277.77777777777777"/>
<line x1="277.6470588235294" y1="277.77777777777777" x2="277.6470588235294" y2="333.33333333333337"/>
<line x1="277.6470588235294" y1="333.33333333333337" x2="277.6470588235294" y2="388.8888888888889"/>
<line x1="222.11764705882354" y1="444.44444444444446" x2="277.6470588235294" y2="444.44444444444446"/>
<line x1="277.6470588235294" y1="388.8888888888889" x2="277.6470588235294" y2="444.44444444444446"/>
<line x1="222.11764705882354" y1="500.0" x2="277.6470588235294" y2="500.0"/>
<line x1="277.6470588235294" y1="111.11111111111111" x2="333.1764705882353" y2="111.11111111111111"/>
<line x1="333.1764705882353" y1="55.55555555555556" x2="333.1764705882353" y2="111.11111111111111"/>
<line x1="333.1764705882353" y1="166.66666666666669" x2="333.1764705882353" y2="222.22222222222223"/>
<line x1="333.1764705882353" y1="222.22222222222223" x2="333.1764705882353" y2="277.77777777777777"/>
<line x1="333.1764705882353" y1="277.77777777777777" x2="333.1764705882353" y2="333.33333333333337"/>
<line x1="333.1764705882353" y1="333.33333333333337" x2="333.1764705882353" y2="388.8888888888889"/>
<line x1="277.6470588235294" y1="444.44444444444446" x2="333.1764705882353" y2="444.44444444444446"/>
<line x1="333.1764705882353" y1="388.8888888888889" x2="333.1764705882353" y2="444.44444444444446"/>
<line x1="277.6470588235294" y1="500.0" x2="333.1764705882353" y2="500.0"/>
<line x1="388.7058823529412" y1="0.0" x2="388.7058823529412" y2="55.55555555555556"/>
<line x1="333.1764705882353" y1="111.11111111111111" x2="388.7058823529412" y2="111.11111111111111"/>
<line x1="388.7058823529412" y1="111.11111111111111" x2="388.7058823529412" y2="166.66666666666669"/>
<line x1="388.7058823529412" y1="166.66666666666669" x2="388.7058823529412" y2="222.22222222222223"/>
<line x1="333.1764705882353" y1="277.77777777777777" x2="388.7058823529412" y2="277.77777777777777"/>
<line x1="388.7058823529412" y1="333.33333333333337" x2="388.7058823529412" y2="388.8888888888889"/>
<line x1="388.7058823529412" y1="388.8888888888889" x2="388.7058823529412" y2="444.44444444444446"/>
<line x1="333.1764705882353" y1="500.0" x2="388.7058823529412" y2="500.0"/>
<line x1="388.7058823529412" y1="444.44444444444446" x2="388.7058823529412" y2="500.0"/>
<line x1="388.7058823529412" y1="55.55555555555556" x2="444.2352941176471" y2="55.55555555555556"/>
<line x1="444.2352941176471" y1="55.55555555555556" x2="444.2352941176471" y2="111.11111111111111"/>
<line x1="444.2352941176471" y1="111.11111111111111" x2="444.2352941176471" y2="166.66666666666669"/>
<line x1="444.2352941176471" y1="166.66666666666669" x2="444.2352941176471" y2="222.22222222222223"/>
<line x1="388.7058823529412" y1="277.77777777777777" x2="444.2352941176471" y2="277.77777777777777"/>
<line x1="444.2352941176471" y1="277.77777777777777" x2="444.2352941176471" y2="333.33333333333337"/>
<line x1="388.7058823529412" y1="388.8888888888889" x2="444.2352941176471" y2="388.8888888888889"/>
<line x1="388.7058823529412" y1="500.0" x2="444.2352941176471" y2="500.0"/>
<line x1="499.7647058823529" y1="55.55555555555556" x2="499.7647058823529" y2="111.11111111111111"/>
<line x1="499.7647058823529" y1="111.11111111111111" x2="499.7647058823529" y2="166.66666666666669"/>
<line x1="499.7647058823529" y1="166.66666666666669" x2="499.7647058823529" y2="222.22222222222223"/>
<line x1="444.2352941176471" y1="277.77777777777777" x2="499.7647058823529" y2="277.77777777777777"/>
<line x1="444.2352941176471" y1="333.33333333333337" x2="499.7647058823529" y2="333.33333333333337"/>
<line x1="499.7647058823529" y1="333.33333333333337" x2="499.7647058823529" y2="388.8888888888889"/>
<line x1="444.2352941176471" y1="444.44444444444446" x2="499.7647058823529" y2="444.44444444444446"/>
<line x1="499.7647058823529" y1="388.8888888888889" x2="499.7647058823529" y2="444.44444444444446"/>
<line x1="444.2352941176471" y1="500.0" x2="499.7647058823529" y2="500.0"/>
<line x1="499.7647058823529" y1="55.55555555555556" x2="555.2941176470588" y2="55.55555555555556"/>
<line x1="555.2941176470588" y1="111.11111111111111" x2="555.2941176470588" y2="166.66666666666669"/>
<line x1="499.7647058823529" y1="222.22222222222223" x2="555.2941176470588" y2="222.22222222222223"/>
<line x1="555.2941176470588" y1="166.66666666666669" x2="555.2941176470588" y2="222.22222222222223"/>
<line x1="499.7647058823529" y1="277.77777777777777" x2="555.2941176470588" y2="277.77777777777777"/>
<line x1="499.7647058823529" y1="388.8888888888889" x2="555.2941176470588" y2="388.8888888888889"/>
<line x1="555.2941176470588" y1="333.33333333333337" x2="555.2941176470588" y2="388.8888888888889"/>
<line x1="499.7647058823529" y1="500.0" x2="555.2941176470588" y2="500.0"/>
<line x1="555.2941176470588" y1="55.55555555555556" x2="610.8235294117648" y2="55.55555555555556"/>
<line x1="610.8235294117648" y1="55.55555555555556" x2="610.8235294117648" y2="111.11111111111111"/>
<line x1="555.2941176470588" y1="166.66666666666669" x2="610.8235294117648" y2="166.66666666666669"/>
<line x1="555.2941176470588" y1="222.22222222222223" x2="610.8235294117648" y2="222.22222222222223"/>
<line x1="555.2941176470588" y1="277.77777777777777" x2="610.8235294117648" y2="277.77777777777777"/>
<line x1="610.8235294117648" y1="277.77777777777777" x2="610.8235294117648" y2="333.33333333333337"/>
<line x1="555.2941176470588" y1="388.8888888888889" x2="610.8235294117648" y2="388.8888888888889"/>
<line x1="555.2941176470588" y1="444.44444444444446" x2="610.8235294117648" y2="444.44444444444446"/>
<line x1="555.2941176470588" y1="500.0" x2="610.8235294117648" y2="500.0"/>
<line x1="610.8235294117648" y1="444.44444444444446" x2="610.8235294117648" y2="500.0"/>
<line x1="610.8235294117648" y1="55.55555555555556" x2="666.3529411764706" y2="55.55555555555556"/>
<line x1="610.8235294117648" y1="111.11111111111111" x2="666.3529411764706" y2="111.11111111111111"/>
<line x1="610.8235294117648" y1="166.66666666666669" x2="666.3529411764706" y2="166.66666666666669"/>
<line x1="666.3529411764706" y1="166.66666666666669" x2="666.3529411764706" y2="222.22222222222223"/>
<line x1="666.3529411764706" y1="222.22222222222223" x2="666.3529411764706" y2="277.77777777777777"/>
<line x1="610.8235294117648" y1="388.8888888888889" x2="666.3529411764706" y2="388.8888888888889"/>
<line x1="666.3529411764706" y1="333.33333333333337" x2="666.3529411764706" y2="388.8888888888889"/>
<line x1="666.3529411764706" y1="388.8888888888889" x2="666.3529411764706" y2="444.44444444444446"/>
<line x1="610.8235294117648" y1="500.0" x2="666.3529411764706" y2="500.0"/>
<line x1="666.3529411764706" y1="111.11111111111111" x2="721.8823529411765" y2="111.11111111111111"/>
<line x1="721.8823529411765" y1="55.55555555555556" x2="721.8823529411765" y2="111.11111111111111"/>
<line x1="721.8823529411765" y1="111.11111111111111" x2="721.8823529411765" y2="166.66666666666669"/>
<line x1="721.8823529411765" y1="166.66666666666669" x2="721.8823529411765" y2="222.22222222222223"/>
<line x1="666.3529411764706" y1="277.77777777777777" x2="721.8823529411765" y2="277.77777777777777"/>
<line x1="666.3529411764706" y1="333.33333333333337" x2="721.8823529411765" y2="333.33333333333337"/>
<line x1="721.8823529411765" y1="277.77777777777777" x2="721.8823529411765" y2="333.33333333333337"/>
<line x1="721.8823529411765" y1="388.8888888888889" x2="721.8823529411765" y2="444.44444444444446"/>
<line x1="666.3529411764706" y1="500.0" x2="721.8823529411765" y2="500.0"/>
<line x1="721.8823529411765" y1="55.55555555555556" x2="777.4117647058824" y2="55.55555555555556"/>
<line x1="721.8823529411765" y1="222.22222222222223" x2="777.4117647058824" y2="222.22222222222223"/>
<line x1="777.4117647058824" y1="166.66666666666669" x2="777.4117647058824" y2="222.22222222222223"/>
<line x1="721.8823529411765" y1="277.77777777777777" x2="777.4117647058824" y2="277.77777777777777"/>
<line x1="721.8823529411765" y1="388.8888888888889" x2="777.4117647058824" y2="388.8888888888889"/>
<line x1="777.4117647058824" y1="333.33333333333337" x2="777.4117647058824" y2="388.8888888888889"/>
<line x1="721.8823529411765" y1="500.0" x2="777.4117647058824" y2="500.0"/>
<line x1="777.4117647058824" y1="444.44444444444446" x2="777.4117647058824" y2="500.0"/>
<line x1="777.4117647058824" y1="55.55555555555556" x2="832.9411764705883" y2="55.55555555555556"/>
<line x1="777.4117647058824" y1="111.11111111111111" x2="832.9411764705883" y2="111.11111111111111"/>
<line x1="832.9411764705883" y1="111.11111111111111" x2="832.9411764705883" y2="166.66666666666669"/>
<line x1="832.9411764705883" y1="166.66666666666669" x2="832.9411764705883" y2="222.22222222222223"/>
<line x1="777.4117647058824" y1="277.77777777777777" x2="832.9411764705883" y2="277.77777777777777"/>
<line x1="832.9411764705883" y1="222.22222222222223" x2="832.9411764705883" y2="277.77777777777777"/>
<line x1="777.4117647058824" y1="333.33333333333337" x2="832.9411764705883" y2="333.33333333333337"/>
<line x1="777.4117647058824" y1="388.8888888888889" x2="832.9411764705883" y2="388.8888888888889"/>
<line x1="777.4117647058824" y1="444.44444444444446" x2="832.9411764705883" y2="444.44444444444446"/>
<line x1="777.4117647058824" y1="500.0" x2="832.9411764705883" y2="500.0"/>
<line x1="832.9411764705883" y1="55.55555555555556" x2="888.4705882352941" y2="55.55555555555556"/>
<line x1="832.9411764705883" y1="111.11111111111111" x2="888.4705882352941" y2="111.11111111111111"/>
<line x1="888.4705882352941" y1="111.11111111111111" x2="888.4705882352941" y2="166.66666666666669"/>
<line x1="888.4705882352941" y1="222.22222222222223" x2="888.4705882352941" y2="277.77777777777777"/>
<line x1="832.9411764705883" y1="333.33333333333337" x2="888.4705882352941" y2="333.33333333333337"/>
<line x1="888.4705882352941" y1="277.77777777777777" x2="888.4705882352941" y2="333.33333333333337"/>
<line x1="832.9411764705883" y1="444.44444444444446" x2="888.4705882352941" y2="444.44444444444446"/>
<line x1="888.4705882352941" y1="388.8888888888889" x2="888.4705882352941" y2="444.44444444444446"/>
<line x1="832.9411764705883" y1="500.0" x2="888.4705882352941" y2="500.0"/>
<line x1="888.4705882352941" y1="55.55555555555556" x2="944.0" y2="55.55555555555556"/>
<line x1="944.0" y1="0.0" x2="944.0" y2="55.55555555555556"/>
<line x1="944.0" y1="55.55555555555556" x2="944.0" y2="111.11111111111111"/>
<line x1="944.0" y1="111.11111111111111" x2="944.0" y2="166.66666666666669"/>
<line x1="888.4705882352941" y1="222.22222222222223" x2="944.0" y2="222.22222222222223"/>
<line x1="944.0" y1="166.66666666666669" x2="944.0" y2="222.22222222222223"/>
<line x1="944.0" y1="222.22222222222223" x2="944.0" y2="277.77777777777777"/>
<line x1="944.0" y1="277.77777777777777" x2="944.0" y2="333.33333333333337"/>
<line x1="944.0" y1="333.33333333333337" x2="944.0" y2="388.8888888888889"/>
<line x1="944.0" y1="388.8888888888889" x2="944.0" y2="444.44444444444446"/>
<line x1="888.4705882352941" y1="500.0" x2="944.0" y2="500.0"/>
<line x1="944.0" y1="444.44444444444446" x2="944.0" y2="500.0"/>
<line x1="0" y1="0" x2="944" y2="0"/>
<line x1="0" y1="0" x2="0" y2="500"/>
</svg>
